<svg width="22" height="22" viewBox="0 0 22 22" fill="none" xmlns="http://www.w3.org/2000/svg">
<path d="M13.2549 13.4143L15.9872 15.4409C16.2308 15.6218 16.3926 15.892 16.437 16.1922C16.4813 16.4924 16.4047 16.7979 16.2238 17.0416C16.0429 17.2852 15.7726 17.447 15.4724 17.4913C15.1722 17.5357 14.8668 17.459 14.6231 17.2781C14.494 17.181 14.3863 17.0583 14.3069 16.9176L12.6513 13.9445C12.6061 13.8624 12.5902 13.7674 12.6063 13.675C12.6224 13.5827 12.6696 13.4986 12.74 13.4368C12.8105 13.3749 12.8999 13.3389 12.9935 13.3348C13.0871 13.3308 13.1794 13.3588 13.2549 13.4143Z" stroke="#EC888D" stroke-width="1.2241" stroke-linecap="round" stroke-linejoin="round"/>
<circle cx="9.07252" cy="8.54168" r="5.93182" transform="rotate(-41.2978 9.07252 8.54168)" stroke="#EC888D" stroke-width="1.31818"/>
</svg>
