<svg width="14" height="19" viewBox="0 0 14 19" fill="none" xmlns="http://www.w3.org/2000/svg">
<path d="M7.42547 17.5039C7.39875 17.7281 7.29072 17.9349 7.12182 18.0848C6.95292 18.2348 6.73488 18.3176 6.50901 18.3176C6.28314 18.3176 6.06513 18.2348 5.89624 18.0848C5.72734 17.9349 5.61931 17.7281 5.59259 17.5039M0.91312 11.9896C1.31535 10.9715 1.46564 9.87138 1.35124 8.78272C1.30192 8.33568 1.31238 7.88402 1.38235 7.43975C1.59559 6.16995 2.25201 5.01686 3.23498 4.1852C4.21794 3.35355 5.46385 2.89718 6.75144 2.89718C8.03902 2.89718 9.28493 3.35355 10.2679 4.1852C11.2509 5.01686 11.9073 6.16995 12.1205 7.43975C12.1905 7.88402 12.2009 8.33568 12.1516 8.78272C12.0399 9.87133 12.1901 10.9709 12.5898 11.9896C12.7528 12.3746 12.824 12.7922 12.7976 13.2095C12.7712 13.6267 12.6479 14.032 12.4376 14.3933C12.2272 14.7546 11.9356 15.062 11.5858 15.2909C11.236 15.5199 10.8377 15.6642 10.4224 15.7125C7.98356 15.9855 5.52188 15.9855 3.08304 15.7125C2.66778 15.6641 2.26948 15.5197 1.91968 15.2907C1.56987 15.0618 1.27815 14.7546 1.06762 14.3934C0.857091 14.0322 0.733537 13.6269 0.70672 13.2097C0.679902 12.7925 0.750567 12.3748 0.91312 11.9896ZM7.72102 1.967C7.72102 2.50106 7.28807 2.93401 6.75401 2.93401C6.21995 2.93401 5.78701 2.50106 5.78701 1.967C5.78701 1.43294 6.21995 1 6.75401 1C7.28807 1 7.72102 1.43294 7.72102 1.967Z" stroke="#EC888D" stroke-width="1.29625" stroke-linecap="round" stroke-linejoin="round"/>
</svg>
