<svg width="28" height="40"  viewBox="0 0 31 41" fill="none" xmlns="http://www.w3.org/2000/svg">
<path d="M11.4976 39.401L27.2956 27.4107C28.3243 26.6294 29.1584 25.6207 29.7326 24.4635C30.3069 23.3063 30.6056 22.032 30.6056 20.7402C30.6056 19.4484 30.3069 18.1741 29.7326 17.0169C29.1584 15.8597 28.3243 14.851 27.2956 14.0697L11.4976 2.0791C10.4977 1.31849 9.30536 0.852598 8.05469 0.733643C6.80401 0.614688 5.54475 0.847412 4.41938 1.40587C3.29401 1.96434 2.34752 2.82632 1.68584 3.89427C1.02417 4.96222 0.674036 6.19369 0.675019 7.45V34.0304C0.674036 35.2867 1.02417 36.5182 1.68584 37.5861C2.34752 38.6541 3.29401 39.5158 4.41938 40.0743C5.54475 40.6327 6.80401 40.8657 8.05469 40.7467C9.30536 40.6278 10.4977 40.1616 11.4976 39.401Z" fill="#FFFDF9"/>
</svg>
