<svg width="20" height="21" viewBox="0 0 20 21" fill="none" xmlns="http://www.w3.org/2000/svg">
<path d="M4.89692 8.91538H7.62136M4.89692 11.765H14.8454M18.8346 18.5551L17.4007 15.6027C17.9557 14.7819 18.3668 13.8734 18.6166 12.9158C19.103 11.1143 19.0731 9.21327 18.5306 7.42777C16.569 1.02033 9.8755 1.5086 9.8755 1.5086C9.8755 1.5086 3.08445 1.01176 1.17735 7.57054C0.658332 9.36727 0.658332 11.2733 1.17735 13.07C3.08445 19.6373 9.8755 19.1348 9.8755 19.1348C11.7102 19.1924 13.5236 18.7289 15.1036 17.7985L18.0804 19.2976C18.185 19.3416 18.3004 19.3537 18.412 19.3324C18.5236 19.3111 18.6263 19.2573 18.7071 19.1777C18.7879 19.0982 18.8431 18.9965 18.8658 18.8857C18.8885 18.7749 18.8777 18.6598 18.8346 18.5551Z" stroke="#FFFDF9" stroke-width="1.42768" stroke-linecap="round" stroke-linejoin="round"/>
</svg>
