<svg width="15" height="21" viewBox="0 0 15 21" fill="none" xmlns="http://www.w3.org/2000/svg">
<path d="M8.19557 19.3689C8.16797 19.6118 8.05638 19.8356 7.88192 19.998C7.70747 20.1603 7.48225 20.25 7.24895 20.25C7.01565 20.25 6.79047 20.1603 6.61601 19.998C6.44156 19.8356 6.32997 19.6118 6.30237 19.3689M1.46892 13.3986C1.88438 12.2963 2.03962 11.1051 1.92146 9.92644C1.87051 9.44243 1.88132 8.95342 1.95359 8.4724C2.17385 7.09757 2.85187 5.8491 3.86718 4.94866C4.88249 4.04821 6.1694 3.5541 7.49935 3.5541C8.82931 3.5541 10.1162 4.04821 11.1315 4.94866C12.1468 5.8491 12.8248 7.09757 13.0451 8.4724C13.1174 8.95342 13.1282 9.44243 13.0772 9.92644C12.9618 11.1051 13.117 12.2956 13.5298 13.3986C13.6982 13.8154 13.7717 14.2676 13.7444 14.7193C13.7172 15.1711 13.5898 15.6099 13.3726 16.0011C13.1553 16.3923 12.8541 16.725 12.4928 16.973C12.1315 17.2209 11.72 17.3771 11.2911 17.4294C8.77202 17.725 6.22933 17.725 3.71025 17.4294C3.28132 17.377 2.86992 17.2206 2.5086 16.9728C2.14728 16.7249 1.84596 16.3922 1.62851 16.0012C1.41105 15.6101 1.28343 15.1713 1.25573 14.7196C1.22803 14.2679 1.30102 13.8156 1.46892 13.3986ZM8.50083 2.54699C8.50083 3.12522 8.05365 3.59397 7.50201 3.59397C6.95038 3.59397 6.50319 3.12522 6.50319 2.54699C6.50319 1.96875 6.95038 1.5 7.50201 1.5C8.05365 1.5 8.50083 1.96875 8.50083 2.54699Z" stroke="#FFFDF9" stroke-width="1.42768" stroke-linecap="round" stroke-linejoin="round"/>
</svg>
