<svg width="9" height="10" viewBox="0 0 9 10" fill="none" xmlns="http://www.w3.org/2000/svg">
<path d="M2.93168 5.92503L5.36663 7.72904M2.93168 5.92503C3.05543 5.72963 3.12761 5.48239 3.12761 5.1907C3.12761 4.899 3.05543 4.66309 2.93168 4.4819M2.93168 5.92503C2.72343 6.25386 2.36915 6.43587 1.96712 6.43587C1.32621 6.43587 0.806641 5.97328 0.806641 5.1907C0.806641 4.40812 1.32621 4.02704 1.96712 4.02704C2.36915 4.02704 2.72343 4.17698 2.93168 4.4819M5.44675 2.74233L2.93168 4.4819M5.44675 2.74233C5.61809 3.18396 6.03592 3.38469 6.52419 3.38469C7.1651 3.38469 7.68467 3.03881 7.68467 2.25623C7.68467 1.47365 7.1651 1.05615 6.52419 1.05615C5.88327 1.05615 5.3637 1.47365 5.3637 2.25623C5.3637 2.44263 5.39318 2.60426 5.44675 2.74233ZM7.68467 7.93001C7.68467 8.71259 7.1651 9.08558 6.52419 9.08558C5.88327 9.08558 5.3637 8.71259 5.3637 7.93001C5.3637 7.14743 5.88327 6.67675 6.52419 6.67675C7.1651 6.67675 7.68467 7.14743 7.68467 7.93001Z" stroke="#FFFDF9" stroke-width="0.669119" stroke-linecap="round" stroke-linejoin="round"/>
</svg>
