<svg width="16" height="18" viewBox="0 0 16 18" fill="none" xmlns="http://www.w3.org/2000/svg">
<path d="M10.7073 4.24381L9.13057 2.12881C8.95366 1.89318 8.72708 1.70249 8.46831 1.57135C8.20955 1.44021 7.92533 1.37207 7.6373 1.37207C7.34927 1.37207 7.06505 1.44021 6.80629 1.57135C6.54752 1.70249 6.32109 1.89318 6.14418 2.12881L4.56746 4.24381C4.34597 4.54181 4.04744 4.76852 3.70658 4.8976L1.28159 5.80311C1.00473 5.90095 0.753557 6.06403 0.547738 6.27948C0.34192 6.49494 0.187028 6.7569 0.0953546 7.04484C0.0036815 7.33279 -0.0223812 7.63881 0.0192899 7.93893C0.0609609 8.23906 0.16927 8.52507 0.335558 8.77453L1.78618 10.9876C1.98561 11.2991 2.09502 11.6632 2.10152 12.037L2.18344 14.7077C2.18951 15.0102 2.26309 15.3071 2.39823 15.5752C2.53338 15.8434 2.72652 16.0754 2.96256 16.2533C3.1986 16.4312 3.47105 16.5501 3.75877 16.6007C4.0465 16.6513 4.34162 16.6321 4.62105 16.5448L7.09977 15.7996C7.44673 15.6943 7.8154 15.6943 8.16236 15.7996L10.6411 16.5448C10.9205 16.6321 11.2156 16.6513 11.5034 16.6007C11.7911 16.5501 12.0635 16.4312 12.2996 16.2533C12.5356 16.0754 12.7287 15.8434 12.8639 15.5752C12.999 15.3071 13.0726 15.0102 13.0787 14.7077L13.1606 12.037C13.1692 11.6636 13.2784 11.3 13.476 10.9876L14.9266 8.77453C15.09 8.52519 15.1962 8.24046 15.2371 7.94205C15.2781 7.64364 15.2528 7.33952 15.1631 7.05282C15.0733 6.76612 14.9215 6.50445 14.7193 6.28786C14.5171 6.07127 14.2697 5.90547 13.9962 5.80311L11.5682 4.8976C11.2273 4.76852 10.9288 4.54181 10.7073 4.24381Z" fill="#FD5D69" stroke="#FD5D69" stroke-width="1.17355" stroke-linecap="round" stroke-linejoin="round"/>
</svg>
