<svg width="17" height="18" viewBox="0 0 17 18" fill="none" xmlns="http://www.w3.org/2000/svg">
<path d="M11.4509 4.24381L9.87422 2.12881C9.69732 1.89318 9.47073 1.70249 9.21196 1.57135C8.9532 1.44021 8.66898 1.37207 8.38095 1.37207C8.09292 1.37207 7.8087 1.44021 7.54994 1.57135C7.29117 1.70249 7.06474 1.89318 6.88784 2.12881L5.31111 4.24381C5.08962 4.54181 4.7911 4.76852 4.45023 4.8976L2.02525 5.80311C1.74839 5.90095 1.49721 6.06403 1.29139 6.27948C1.08557 6.49494 0.93068 6.7569 0.839007 7.04484C0.747334 7.33279 0.721271 7.63881 0.762942 7.93893C0.804613 8.23906 0.912922 8.52507 1.07921 8.77453L2.52983 10.9876C2.72926 11.2991 2.83868 11.6632 2.84517 12.037L2.92709 14.7077C2.93316 15.0102 3.00674 15.3071 3.14189 15.5752C3.27703 15.8434 3.47017 16.0754 3.70621 16.2533C3.94226 16.4312 4.2147 16.5501 4.50243 16.6007C4.79016 16.6513 5.08528 16.6321 5.3647 16.5448L7.84342 15.7996C8.19038 15.6943 8.55905 15.6943 8.90601 15.7996L11.3847 16.5448C11.6642 16.6321 11.9593 16.6513 12.247 16.6007C12.5347 16.5501 12.8072 16.4312 13.0432 16.2533C13.2793 16.0754 13.4724 15.8434 13.6075 15.5752C13.7427 15.3071 13.8163 15.0102 13.8223 14.7077L13.9043 12.037C13.9128 11.6636 14.022 11.3 14.2196 10.9876L15.6702 8.77453C15.8336 8.52519 15.9398 8.24046 15.9808 7.94205C16.0218 7.64364 15.9965 7.33952 15.9067 7.05282C15.817 6.76612 15.6652 6.50445 15.463 6.28786C15.2608 6.07127 15.0134 5.90547 14.7399 5.80311L12.3118 4.8976C11.971 4.76852 11.6724 4.54181 11.4509 4.24381Z" stroke="#FD5D69" stroke-width="1.17355" stroke-linecap="round" stroke-linejoin="round"/>
</svg>
