<svg width="13" height="12" viewBox="0 0 13 12" fill="none" xmlns="http://www.w3.org/2000/svg">
<path d="M8.74908 2.62958L7.64766 1.15216C7.52409 0.987556 7.3658 0.854351 7.18505 0.762742C7.00429 0.671134 6.80575 0.623535 6.60454 0.623535C6.40334 0.623535 6.2048 0.671134 6.02404 0.762742C5.84328 0.854351 5.68511 0.987556 5.56153 1.15216L4.46012 2.62958C4.30539 2.83775 4.09686 2.99612 3.85875 3.08628L2.16478 3.71882C1.97139 3.78717 1.79593 3.90109 1.65215 4.05159C1.50838 4.2021 1.40018 4.38509 1.33614 4.58623C1.2721 4.78738 1.2539 5.00115 1.28301 5.2108C1.31212 5.42045 1.38777 5.62024 1.50393 5.7945L2.51726 7.34044C2.65657 7.55802 2.733 7.81239 2.73754 8.0735L2.79476 9.93911C2.799 10.1504 2.8504 10.3578 2.94481 10.5451C3.03922 10.7324 3.17413 10.8945 3.33902 11.0188C3.50391 11.143 3.69422 11.2261 3.89521 11.2614C4.0962 11.2968 4.30236 11.2834 4.49755 11.2224L6.22905 10.7018C6.47142 10.6283 6.72895 10.6283 6.97132 10.7018L8.70283 11.2224C8.89802 11.2834 9.10417 11.2968 9.30517 11.2614C9.50616 11.2261 9.69647 11.143 9.86136 11.0188C10.0262 10.8945 10.1612 10.7324 10.2556 10.5451C10.35 10.3578 10.4014 10.1504 10.4056 9.93911L10.4628 8.0735C10.4688 7.81263 10.5451 7.55867 10.6831 7.34044L11.6964 5.7945C11.8106 5.62033 11.8848 5.42143 11.9134 5.21297C11.942 5.00452 11.9244 4.79208 11.8617 4.59181C11.799 4.39154 11.6929 4.20874 11.5517 4.05745C11.4104 3.90615 11.2376 3.79033 11.0466 3.71882L9.35045 3.08628C9.11234 2.99612 8.9038 2.83775 8.74908 2.62958Z" fill="#FFFDF9" stroke="#FFFDF9" stroke-width="0.819783" stroke-linecap="round" stroke-linejoin="round"/>
</svg>
